<svg width="31" height="23" viewBox="0 0 31 23" fill="none" xmlns="http://www.w3.org/2000/svg">
<path d="M27.233 2.24931C28.3169 2.24931 29.1947 3.12798 29.1947 4.21099V19.4662C29.1947 20.5488 28.3169 21.427 27.233 21.427H3.76458C2.68157 21.427 1.80333 20.5488 1.80333 19.4662V4.21099C1.80333 3.12798 2.68157 2.24931 3.76458 2.24931H27.233ZM27.233 0.945H3.76458C1.96376 0.945 0.499023 2.41018 0.499023 4.21099V19.4662C0.499023 21.2666 1.96376 22.7313 3.76458 22.7313H27.233C29.0338 22.7313 30.499 21.2666 30.499 19.4662V4.21099C30.499 2.41018 29.0338 0.945 27.233 0.945Z" fill="white"/>
<path d="M15.4986 15.2272C15.3443 15.2272 15.1895 15.1724 15.066 15.0629L3.54461 4.84576C3.27506 4.60707 3.25028 4.19447 3.4894 3.92535C3.72852 3.65622 4.14068 3.63144 4.40981 3.87013L15.4986 13.7033L26.5883 3.8697C26.8579 3.63014 27.2709 3.65536 27.5087 3.92491C27.7478 4.19447 27.723 4.60663 27.4535 4.84532L15.9312 15.0624C15.8077 15.1724 15.653 15.2272 15.4986 15.2272Z" fill="white"/>
</svg>
