<svg width="24" height="24" viewBox="0 0 24 24" fill="none" xmlns="http://www.w3.org/2000/svg">
<path d="M20.423 1.42853C21.6101 1.42853 22.5715 2.39088 22.5715 3.57704V20.2851C22.5715 21.4708 21.6101 22.4327 20.423 22.4327H3.57656C2.39041 22.4327 1.42853 21.4708 1.42853 20.2851V3.57704C1.42853 2.39088 2.39041 1.42853 3.57656 1.42853H20.423ZM20.423 0H3.57656C1.60424 0 0 1.60472 0 3.57704V20.2851C0 22.257 1.60424 23.8612 3.57656 23.8612H20.423C22.3953 23.8612 24 22.257 24 20.2851V3.57704C24 1.60472 22.3953 0 20.423 0Z" fill="white"/>
<path d="M19 6C19.5523 6 20 5.55228 20 5C20 4.44772 19.5523 4 19 4C18.4477 4 18 4.44772 18 5C18 5.55228 18.4477 6 19 6Z" fill="white"/>
<path fill-rule="evenodd" clip-rule="evenodd" d="M8.66658 7.01118C9.65328 6.35189 10.8133 6 12 6C13.5913 6 15.1174 6.63214 16.2426 7.75736C17.3679 8.88258 18 10.4087 18 12C18 13.1867 17.6481 14.3467 16.9888 15.3334C16.3295 16.3201 15.3925 17.0892 14.2961 17.5433C13.1997 17.9974 11.9933 18.1162 10.8295 17.8847C9.66558 17.6532 8.59648 17.0818 7.75736 16.2426C6.91825 15.4035 6.3468 14.3344 6.11529 13.1705C5.88378 12.0067 6.0026 10.8003 6.45673 9.7039C6.91085 8.60754 7.67989 7.67047 8.66658 7.01118ZM12 17C14.7614 17 17 14.7614 17 12C17 9.23858 14.7614 7 12 7C9.23858 7 7 9.23858 7 12C7 14.7614 9.23858 17 12 17Z" fill="white"/>
</svg>
