<svg viewBox="0 0 164 147" fill="none" xmlns="http://www.w3.org/2000/svg">
<path d="M16.0633 83.1016L18.8705 81.9791C20.9914 81.1061 22.6133 80.4202 24.2352 80.4202C32.4695 80.4202 38.5205 87.4665 38.5205 95.3858C38.5205 105.862 30.2238 113.594 19.5567 113.594C15.6267 113.594 12.1333 112.908 7.33 110.975V71.1914C7.33 66.9511 7.20523 66.8888 2.71381 66.6394V64.5816C5.83285 64.0827 11.3848 63.085 16.0633 62.0873V83.1016ZM16.0633 104.926C16.0633 105.924 16.1881 106.735 16.5 107.358C16.9367 108.356 18.4962 110.289 21.2409 110.414C25.2957 110.414 29.0386 106.174 29.0386 97.3189C29.0386 88.6513 24.6719 85.097 19.2448 85.097C18.5586 85.097 17.1238 85.2217 16.1257 85.6582V104.926H16.0633Z" fill="white"/>
<path d="M53.6167 71.129C53.6167 66.8888 53.4919 66.8264 48.8757 66.5146V64.4569C51.9324 63.958 57.6714 62.9603 62.2876 61.9626V105.55C62.2876 109.603 62.6619 109.977 67.2157 110.414V112.721H48.6262V110.414C53.18 109.977 53.5543 109.603 53.5543 105.55V71.129H53.6167Z" fill="white"/>
<path d="M102.461 103.929C102.461 106.922 103.397 107.982 104.395 107.982C105.268 107.982 106.266 107.608 107.139 107.296L107.95 109.354L100.215 113.469C96.1605 113.469 94.7257 110.85 94.1643 108.855C91.2324 110.788 87.4271 113.469 86.1795 113.469C80.69 113.469 77.1967 108.73 77.1967 104.677C77.1967 101.123 78.8186 98.6908 82.6862 97.1318C86.1171 95.6976 91.8562 93.5775 94.1019 92.0809V89.5243C94.1019 85.7829 92.1681 84.1616 89.4233 84.1616C88.7371 84.1616 87.8014 84.5358 87.0528 85.1593C85.93 86.2194 85.0567 88.2148 84.4952 91.0209C84.3081 92.1433 83.1228 92.6422 81.8752 92.6422C80.5028 92.6422 77.6333 91.2079 77.6333 89.2749C77.6333 88.0901 78.5067 86.7806 80.1286 85.4711C82.499 83.6004 87.0528 81.2309 92.48 80.2955C95.3495 80.2955 97.5328 80.9191 99.3419 82.2286C101.962 84.0369 102.461 86.5935 102.461 89.2125V103.929ZM93.9771 95.0117C92.5424 95.6976 90.6086 96.9448 89.1738 97.7554C87.0528 98.9402 85.93 100.499 85.93 103.056C85.93 106.361 88.4252 108.231 89.9847 108.231C91.0452 108.231 92.3552 107.608 93.9147 106.298V95.0117H93.9771Z" fill="white"/>
<path d="M140.638 87.7783C140.638 85.2217 140.264 84.7228 138.392 84.411L136.147 84.0369V81.9791C139.702 81.8544 145.94 81.1061 149.309 80.6696V104.926C149.309 107.92 149.621 108.73 151.867 108.73H154.112V110.975C149.808 111.536 145.254 112.534 141.199 113.532L140.638 113.033V108.481C139.266 109.478 138.08 110.414 136.521 111.412C134.275 112.783 132.529 113.532 130.22 113.532C124.294 113.532 120.988 109.541 120.988 104.053V87.8407C120.988 85.284 120.614 84.7852 118.742 84.4734L116.809 84.0993V82.0415C120.115 81.9168 125.979 81.1685 129.659 80.732V102.245C129.659 106.485 131.78 108.107 134.525 108.107C136.521 108.107 138.517 107.171 140.576 105.363V87.7783H140.638Z" fill="white"/>
<path d="M12.57 139.347C12.57 138.35 12.7571 137.352 13.1314 136.479C13.5057 135.606 14.0671 134.795 14.6909 134.172C15.3771 133.486 16.1257 132.987 16.999 132.613C17.8724 132.239 18.8705 132.052 19.8685 132.052C20.8666 132.052 21.8024 132.239 22.5509 132.551C23.3619 132.862 24.0481 133.361 24.7966 133.985C24.9838 134.172 24.9838 134.359 24.7966 134.546L23.2371 136.167C23.1747 136.23 23.1124 136.292 22.9876 136.292C22.8628 136.292 22.8005 136.23 22.7381 136.167C22.3638 135.855 21.9271 135.544 21.4281 135.419C20.929 135.232 20.4924 135.17 19.9933 135.17C19.4319 135.17 18.8705 135.294 18.4338 135.481C17.9347 135.731 17.4981 135.98 17.1862 136.417C16.8119 136.791 16.5624 137.227 16.3752 137.726C16.1881 138.225 16.0633 138.786 16.0633 139.347C16.0633 139.909 16.1881 140.47 16.3752 140.969C16.5624 141.468 16.8743 141.904 17.1862 142.278C17.5605 142.652 17.9347 142.964 18.4338 143.151C18.9328 143.338 19.4319 143.463 20.0557 143.463C20.5547 143.463 20.9914 143.401 21.4905 143.214C21.9895 143.026 22.4262 142.777 22.8005 142.465C22.8628 142.403 22.9252 142.341 23.05 142.403C23.1747 142.403 23.2371 142.465 23.2995 142.528L24.859 144.211C24.9214 144.274 24.9838 144.398 24.9214 144.461C24.9214 144.585 24.859 144.648 24.7966 144.71C24.1105 145.396 23.3619 145.895 22.4885 146.207C21.6152 146.518 20.7419 146.706 19.8685 146.706C18.8705 146.706 17.8724 146.518 16.999 146.144C16.1257 145.77 15.3147 145.271 14.6909 144.585C14.0047 143.899 13.5057 143.151 13.1314 142.278C12.7571 141.405 12.57 140.407 12.57 139.347V139.347Z" fill="white"/>
<path d="M30.3486 132.613C30.3486 132.488 30.411 132.426 30.4733 132.363C30.5357 132.301 30.6605 132.239 30.7229 132.239H33.1557C33.2805 132.239 33.3429 132.301 33.4052 132.363C33.4676 132.426 33.53 132.551 33.53 132.613V146.082C33.53 146.207 33.4676 146.269 33.4052 146.331C33.3429 146.394 33.2181 146.456 33.1557 146.456H30.7229C30.5981 146.456 30.5357 146.394 30.4733 146.331C30.411 146.269 30.3486 146.144 30.3486 146.082V132.613Z" fill="white"/>
<path d="M38.6452 146.456C38.5205 146.456 38.3957 146.394 38.3333 146.269C38.2709 146.144 38.2709 146.02 38.3333 145.895L44.6962 132.239C44.7586 132.114 44.8833 131.989 45.0705 131.989H45.2576C45.3824 131.989 45.5071 132.052 45.6319 132.239L51.9947 145.895C52.0571 146.02 52.0571 146.144 51.9947 146.269C51.9324 146.394 51.8076 146.456 51.6828 146.456H49.4371C49.25 146.456 49.1252 146.394 49.0005 146.331C48.8757 146.269 48.8133 146.144 48.6886 145.957L47.94 144.336H42.3881L41.6395 145.957C41.5771 146.082 41.5147 146.207 41.39 146.269C41.2652 146.394 41.1405 146.394 40.8909 146.394H38.6452V146.456ZM46.63 141.592L45.0705 138.225L43.5733 141.592H46.63Z" fill="white"/>
<path d="M56.6109 132.363C56.6109 132.239 56.6733 132.176 56.7357 132.114C56.7981 132.052 56.9228 131.989 56.9852 131.989H57.4843L65.5938 139.784V132.551C65.5938 132.426 65.6562 132.363 65.7185 132.301C65.7809 132.239 65.9057 132.176 65.9681 132.176H68.4009C68.5257 132.176 68.5881 132.239 68.6505 132.301C68.7128 132.363 68.7752 132.488 68.7752 132.551V146.207C68.7752 146.331 68.7128 146.394 68.6505 146.456C68.5881 146.518 68.4633 146.581 68.4009 146.581H68.089C68.089 146.581 68.0266 146.581 67.9643 146.581C67.9019 146.581 67.8395 146.518 67.8395 146.518L59.7924 138.474V146.082C59.7924 146.207 59.73 146.269 59.6676 146.331C59.6052 146.394 59.4805 146.456 59.4181 146.456H57.0476C56.9228 146.456 56.8605 146.394 56.7981 146.331C56.7357 146.269 56.6733 146.144 56.6733 146.082L56.6109 132.363Z" fill="white"/>
<path d="M74.3895 139.347C74.3895 138.35 74.5767 137.352 74.951 136.479C75.3252 135.606 75.8243 134.795 76.5105 134.172C77.1967 133.486 77.9452 132.987 78.8186 132.613C79.6919 132.239 80.69 132.052 81.6881 132.052C82.6862 132.052 83.6843 132.239 84.5576 132.613C85.431 132.987 86.2419 133.548 86.8657 134.172C87.5519 134.858 88.051 135.606 88.4253 136.479C88.7995 137.352 88.9867 138.35 88.9867 139.347C88.9867 140.345 88.7995 141.343 88.4253 142.216C88.051 143.089 87.5519 143.899 86.8657 144.523C86.1795 145.209 85.431 145.708 84.5576 146.082C83.6843 146.456 82.6862 146.643 81.6881 146.643C80.69 146.643 79.6919 146.456 78.8186 146.082C77.9452 145.708 77.1343 145.209 76.5105 144.523C75.8243 143.837 75.3252 143.089 74.951 142.216C74.5767 141.343 74.3895 140.407 74.3895 139.347ZM77.6333 139.347C77.6333 139.909 77.7581 140.407 77.9452 140.906C78.1324 141.405 78.4443 141.842 78.8186 142.216C79.1929 142.59 79.6295 142.902 80.1286 143.089C80.6276 143.276 81.1267 143.401 81.6881 143.401C82.2495 143.401 82.7486 143.276 83.2476 143.089C83.7467 142.902 84.1833 142.59 84.5576 142.216C84.9319 141.842 85.2438 141.405 85.431 140.906C85.6181 140.407 85.7429 139.909 85.7429 139.347C85.7429 138.786 85.6181 138.287 85.431 137.789C85.2438 137.29 84.9319 136.853 84.5576 136.479C84.1833 136.105 83.7467 135.793 83.2476 135.606C82.7486 135.419 82.2495 135.294 81.6881 135.294C81.1267 135.294 80.6276 135.419 80.1286 135.606C79.6295 135.793 79.1929 136.105 78.8186 136.479C78.4443 136.853 78.1324 137.29 77.9452 137.789C77.7581 138.287 77.6333 138.786 77.6333 139.347Z" fill="white"/>
<path d="M96.2228 135.232H93.2909C93.1662 135.232 93.1038 135.17 93.0414 135.107C92.979 135.045 92.9166 134.92 92.9166 134.858V132.613C92.9166 132.488 92.979 132.426 93.0414 132.363C93.1038 132.301 93.2285 132.239 93.2909 132.239H102.336C102.461 132.239 102.523 132.301 102.586 132.363C102.648 132.426 102.71 132.551 102.71 132.613V134.858C102.71 134.982 102.648 135.045 102.586 135.107C102.523 135.17 102.399 135.232 102.336 135.232H99.4666V146.082C99.4666 146.207 99.4043 146.269 99.3419 146.331C99.2795 146.394 99.1547 146.456 99.0923 146.456H96.6595C96.5347 146.456 96.4723 146.394 96.41 146.331C96.3476 146.269 96.2852 146.144 96.2852 146.082V135.232H96.2228Z" fill="white"/>
<path d="M107.826 132.613C107.826 132.488 107.888 132.426 107.95 132.363C108.013 132.301 108.138 132.239 108.2 132.239H110.633C110.758 132.239 110.82 132.301 110.882 132.363C110.945 132.426 111.007 132.551 111.007 132.613V146.082C111.007 146.207 110.945 146.269 110.882 146.331C110.82 146.394 110.695 146.456 110.633 146.456H108.2C108.075 146.456 108.013 146.394 107.95 146.331C107.888 146.269 107.826 146.144 107.826 146.082V132.613Z" fill="white"/>
<path d="M117.62 132.613C117.62 132.488 117.682 132.426 117.744 132.363C117.807 132.301 117.931 132.239 117.994 132.239H122.922C123.546 132.239 124.107 132.363 124.669 132.613C125.23 132.862 125.729 133.174 126.103 133.548C126.54 133.985 126.852 134.421 127.101 134.982C127.351 135.544 127.476 136.105 127.476 136.728C127.476 137.352 127.351 137.976 127.101 138.537C126.852 139.098 126.54 139.597 126.103 139.971C125.667 140.407 125.23 140.719 124.669 140.969C124.107 141.218 123.546 141.343 122.922 141.343H120.801V146.144C120.801 146.269 120.739 146.331 120.676 146.394C120.614 146.456 120.489 146.518 120.427 146.518H118.056C117.931 146.518 117.869 146.456 117.807 146.394C117.744 146.331 117.682 146.207 117.682 146.144V132.613H117.62ZM122.735 138.35C123.171 138.35 123.546 138.225 123.858 137.913C124.17 137.601 124.357 137.227 124.357 136.791C124.357 136.354 124.17 135.98 123.858 135.731C123.546 135.419 123.171 135.294 122.735 135.294H120.801V138.412H122.735V138.35Z" fill="white"/>
<path d="M132.591 132.613C132.591 132.488 132.653 132.426 132.716 132.363C132.778 132.301 132.903 132.239 132.965 132.239H135.398C135.523 132.239 135.585 132.301 135.648 132.363C135.71 132.426 135.772 132.551 135.772 132.613V146.082C135.772 146.207 135.71 146.269 135.648 146.331C135.585 146.394 135.46 146.456 135.398 146.456H132.965C132.84 146.456 132.778 146.394 132.716 146.331C132.653 146.269 132.591 146.144 132.591 146.082V132.613Z" fill="white"/>
<path d="M140.825 146.456C140.7 146.456 140.576 146.394 140.513 146.269C140.451 146.144 140.451 146.02 140.513 145.895L146.876 132.239C146.939 132.114 147.063 131.989 147.25 131.989H147.438C147.562 131.989 147.687 132.052 147.812 132.239L154.175 145.895C154.237 146.02 154.237 146.144 154.175 146.269C154.112 146.394 153.988 146.456 153.863 146.456H151.617C151.43 146.456 151.305 146.394 151.18 146.331C151.056 146.269 150.993 146.144 150.869 145.957L150.12 144.336H144.568L143.82 145.957C143.757 146.082 143.695 146.207 143.57 146.269C143.445 146.331 143.32 146.394 143.071 146.394H140.825V146.456ZM148.872 141.592L147.313 138.225L145.816 141.592H148.872Z" fill="white"/>
<path d="M2.33951 141.343C3.40753 141.343 4.27332 140.477 4.27332 139.41C4.27332 138.342 3.40753 137.477 2.33951 137.477C1.2715 137.477 0.405701 138.342 0.405701 139.41C0.405701 140.477 1.2715 141.343 2.33951 141.343Z" fill="white"/>
<path d="M161.66 141.343C162.728 141.343 163.594 140.477 163.594 139.41C163.594 138.342 162.728 137.477 161.66 137.477C160.592 137.477 159.727 138.342 159.727 139.41C159.727 140.477 160.592 141.343 161.66 141.343Z" fill="white"/>
<path fill-rule="evenodd" clip-rule="evenodd" d="M119.366 56.7246L120.614 55.8516C120.614 55.8516 121.113 55.5398 120.427 54.9163C120.427 54.9163 114.376 49.6159 113.502 47.3711C113.502 47.3711 113.003 47.184 113.315 46.6852C113.315 46.6852 114.251 38.0176 113.315 32.5925C113.315 32.5925 112.879 27.3545 112.816 25.6086C112.816 25.6086 110.945 26.8557 110.383 32.8419C110.383 32.8419 109.572 38.7035 109.947 42.1955C109.947 42.1955 109.759 42.2578 109.697 42.0707L108.013 39.3894C108.013 39.3894 107.701 39.0153 107.763 37.7681C107.763 37.7681 108.075 17.0657 108.761 16.255C108.761 16.255 108.949 12.1395 108.387 11.4535C108.387 11.4535 105.642 12.6383 104.894 18.3128C104.894 18.3128 103.147 29.9735 103.521 31.2207C103.521 31.2207 99.9657 24.7356 100.09 24.112C100.215 23.5508 102.336 6.65207 102.087 7.58743C102.087 7.58743 102.087 6.09086 102.024 5.77908C102.024 5.77908 101.837 4.53194 100.901 5.96615C100.901 5.96615 99.5914 8.95927 98.8428 11.1418C98.8428 11.1418 97.3457 16.6292 97.5328 17.1904C97.5328 17.1904 94.7257 8.83456 94.8505 7.46271C94.8505 7.46271 93.4781 1.47645 93.4781 0.852886C93.4781 0.852886 92.1057 1.97531 92.1057 3.7213L92.48 6.15322L89.1738 3.97073C89.1738 3.97073 90.1719 7.21329 91.7938 9.39577L93.1038 11.2041C93.1038 11.2041 95.0376 14.4467 95.1 17.3151C95.1 17.3151 91.9809 12.2642 88.4876 12.8878L91.9185 17.5022L96.7219 23.6131C96.7219 23.6131 98.7181 25.9827 98.9052 27.2922L102.71 35.0868C102.71 35.0868 104.769 39.2647 105.767 40.5118L109.51 46.3734C109.51 46.3734 100.527 41.8837 99.4666 41.759C99.4666 41.759 97.3457 40.7613 97.0338 40.6989C97.0338 40.6989 95.2871 37.5811 94.4138 37.0198C94.4138 37.0198 89.9224 31.7819 89.2362 31.8442C89.2362 31.8442 85.6805 28.1028 85.6181 27.5416C85.6181 27.5416 84.8695 30.7218 88.0509 33.8397C88.0509 33.8397 88.3004 33.8396 91.17 37.0822C91.17 37.0822 92.2305 38.6411 92.6047 39.3894L86.3043 38.0799L86.0547 37.9552L85.8676 37.8928L85.6181 37.5811C85.6181 37.5811 79.6919 30.41 78.1947 29.6617C78.1947 29.6617 73.3914 26.2321 71.6447 25.7956C71.6447 25.7956 71.4576 29.1629 75.1381 32.7172C75.1381 32.7172 78.8185 36.3963 80.8771 37.0822L80.9395 37.2693C80.9395 37.2693 75.8866 36.9575 75.8243 36.7081L75.5747 36.6457C75.5747 36.6457 70.9585 30.6595 68.9 29.4123C68.9 29.4123 64.5333 26.731 62.2252 26.045C62.2252 26.045 61.6014 25.858 61.04 25.2344C60.9152 25.2968 60.6657 27.4169 62.2252 29.8488C62.2252 29.8488 64.97 32.7796 66.9662 33.902C68.9624 34.9621 67.0909 34.0267 67.0909 34.0267C67.0909 34.0267 69.6486 36.0845 69.8981 36.5834C70.1476 37.0822 70.0852 36.6457 70.0852 36.6457C70.0852 36.6457 64.4085 36.5833 64.5333 36.7081C64.5333 36.7081 63.7847 36.7704 63.0985 35.7727C63.0985 35.7727 59.2933 32.0937 58.0457 31.4701C58.0457 31.4701 53.8662 29.7865 52.1819 29.6617C52.1819 29.6617 50.9343 29.1629 50.7471 28.9135C50.7471 28.9135 50.3105 30.223 52.0571 32.2807C52.0571 32.2807 53.8038 33.7773 55.2386 34.6503C55.2386 34.6503 57.11 35.9598 57.5466 36.7704L57.6714 37.0198L57.5466 37.1446C57.5466 37.1446 56.3614 36.9575 55.4257 37.2069L49.8738 37.9552C49.8738 37.9552 42.7 38.8282 43.3238 40.6365L48.0024 39.7635C48.0024 39.7635 56.299 38.1423 61.539 38.4541C61.539 38.4541 54.8643 40.7613 51.1214 45.6874C51.1214 45.6874 50.6847 46.2487 51.4333 46.3734C51.4333 46.3734 57.2347 44.9392 61.7262 42.3825C61.7262 42.3825 65.0324 39.6388 65.2195 38.7658C65.2195 38.7658 65.469 38.1423 66.3424 38.3293C66.3424 38.3293 73.1419 38.3293 75.0757 38.8282C75.0757 38.8282 69.8981 40.4495 66.9662 45.438C66.9662 45.438 71.0209 44.2532 73.2666 44.0038C73.2666 44.0038 80.9395 42.3825 82.8733 40.3248C82.8733 40.3248 83.4971 39.7012 84.3081 40.013C84.3081 40.013 84.9943 39.6388 95.2871 42.819L95.1624 43.0685L94.6009 43.2555C94.6009 43.2555 89.6728 44.5027 88.4876 44.4403C88.4876 44.4403 84.1833 43.3179 81.3138 48.3064L84.9943 48.1817C84.9943 48.1817 90.1095 47.9323 91.8562 47.5582C91.8562 47.5582 96.7843 47.2464 100.652 45.438C100.652 45.438 101.338 44.9392 103.334 46.2487C103.334 46.2487 103.833 46.6228 103.771 46.5604C103.709 46.4981 97.4081 47.3087 95.2247 48.4311C95.2247 48.4311 92.7919 49.0547 91.7314 49.9901C91.7314 49.9901 89.6104 50.8631 89.9224 53.1079L90.4838 54.168C90.4838 54.168 90.7333 54.5421 91.0452 54.355L92.2304 53.4821L93.5405 52.6714C93.5405 52.6714 96.4724 50.9254 100.34 51.2372C100.34 51.2372 106.64 52.2973 110.009 50.9254C110.009 50.9254 111.007 50.1771 112.005 51.549C112.005 51.549 116.122 54.6045 117.058 55.9763L117.931 56.6623C117.931 56.5375 118.618 57.3482 119.366 56.7246V56.7246Z" fill="white"/>
</svg>
