<svg enable-background="new 0 0 420 392.9" viewBox="0 0 420 392.9" xmlns="http://www.w3.org/2000/svg"><circle cx="210" cy="196.5" fill="#0e3252" r="183.7"/><circle cx="210.4" cy="196.5" fill="#0e3252" r="176.7" stroke="#fff" stroke-miterlimit="10" stroke-width="4"/><g fill="#fff"><path d="m104.3 191 4.5-1.8c3.4-1.4 6-2.5 8.6-2.5 13.2 0 22.9 11.3 22.9 24 0 16.8-13.3 29.2-30.4 29.2-6.3 0-11.9-1.1-19.6-4.2v-63.8c0-6.8-.2-6.9-7.4-7.3v-3.3c5-.8 13.9-2.4 21.4-4zm0 35c0 1.6.2 2.9.7 3.9.7 1.6 3.2 4.7 7.6 4.9 6.5 0 12.5-6.8 12.5-21 0-13.9-7-19.6-15.7-19.6-1.1 0-3.4.2-5 .9v30.9z"/><path d="m164.5 171.8c0-6.8-.2-6.9-7.6-7.4v-3.3c4.9-.8 14.1-2.4 21.5-4v69.9c0 6.5.6 7.1 7.9 7.8v3.7h-29.8v-3.7c7.3-.7 7.9-1.3 7.9-7.8v-55.2z"/><path d="m242.8 224.4c0 4.8 1.5 6.5 3.1 6.5 1.4 0 3-.6 4.4-1.1l1.3 3.3-12.4 6.6c-6.5 0-8.8-4.2-9.7-7.4-4.7 3.1-10.8 7.4-12.8 7.4-8.8 0-14.4-7.6-14.4-14.1 0-5.7 2.6-9.6 8.8-12.1 5.5-2.3 14.7-5.7 18.3-8.1v-4.1c0-6-3.1-8.6-7.5-8.6-1.1 0-2.6.6-3.8 1.6-1.8 1.7-3.2 4.9-4.1 9.4-.3 1.8-2.2 2.6-4.2 2.6-2.2 0-6.8-2.3-6.8-5.4 0-1.9 1.4-4 4-6.1 3.8-3 11.1-6.8 19.8-8.3 4.6 0 8.1 1 11 3.1 4.2 2.9 5 7 5 11.2zm-13.6-14.3c-2.3 1.1-5.4 3.1-7.7 4.4-3.4 1.9-5.2 4.4-5.2 8.5 0 5.3 4 8.3 6.5 8.3 1.7 0 3.8-1 6.3-3.1v-18.1z"/><path d="m304 198.5c0-4.1-.6-4.9-3.6-5.4l-3.6-.6v-3.3c5.7-.2 15.7-1.4 21.1-2.1v38.9c0 4.8.5 6.1 4.1 6.1h3.6v3.6c-6.9.9-14.2 2.5-20.7 4.1l-.9-.8v-7.3c-2.2 1.6-4.1 3.1-6.6 4.7-3.6 2.2-6.4 3.4-10.1 3.4-9.5 0-14.8-6.4-14.8-15.2v-26c0-4.1-.6-4.9-3.6-5.4l-3.1-.6v-3.3c5.3-.2 14.7-1.4 20.6-2.1v34.5c0 6.8 3.4 9.4 7.8 9.4 3.2 0 6.4-1.5 9.7-4.4v-28.2z"/><path d="m98.7 281.2c0-1.6.3-3.2.9-4.6s1.5-2.7 2.5-3.7c1.1-1.1 2.3-1.9 3.7-2.5s3-.9 4.6-.9 3.1.3 4.3.8c1.3.5 2.4 1.3 3.6 2.3.3.3.3.6 0 .9l-2.5 2.6c-.1.1-.2.2-.4.2s-.3-.1-.4-.2c-.6-.5-1.3-1-2.1-1.2-.8-.3-1.5-.4-2.3-.4-.9 0-1.8.2-2.5.5-.8.4-1.5.8-2 1.5-.6.6-1 1.3-1.3 2.1s-.5 1.7-.5 2.6.2 1.8.5 2.6.8 1.5 1.3 2.1c.6.6 1.2 1.1 2 1.4s1.6.5 2.6.5c.8 0 1.5-.1 2.3-.4s1.5-.7 2.1-1.2c.1-.1.2-.2.4-.1.2 0 .3.1.4.2l2.5 2.7c.1.1.2.3.1.4 0 .2-.1.3-.2.4-1.1 1.1-2.3 1.9-3.7 2.4s-2.8.8-4.2.8c-1.6 0-3.2-.3-4.6-.9s-2.7-1.4-3.7-2.5c-1.1-1.1-1.9-2.3-2.5-3.7s-.9-3-.9-4.7z"/><path d="m127.2 270.4c0-.2.1-.3.2-.4s.3-.2.4-.2h3.9c.2 0 .3.1.4.2s.2.3.2.4v21.6c0 .2-.1.3-.2.4s-.3.2-.4.2h-3.9c-.2 0-.3-.1-.4-.2s-.2-.3-.2-.4z"/><path d="m140.5 292.6c-.2 0-.4-.1-.5-.3s-.1-.4 0-.6l10.2-21.9c.1-.2.3-.4.6-.4h.3c.2 0 .4.1.6.4l10.2 21.9c.1.2.1.4 0 .6s-.3.3-.5.3h-3.6c-.3 0-.5-.1-.7-.2s-.3-.3-.5-.6l-1.2-2.6h-8.9l-1.2 2.6c-.1.2-.2.4-.4.5-.2.2-.4.2-.8.2h-3.6zm12.8-7.8-2.5-5.4-2.4 5.4z"/><path d="m169.3 270c0-.2.1-.3.2-.4s.3-.2.4-.2h.8l13 12.5v-11.6c0-.2.1-.3.2-.4s.3-.2.4-.2h3.9c.2 0 .3.1.4.2s.2.3.2.4v21.9c0 .2-.1.3-.2.4s-.3.2-.4.2h-.5s-.1 0-.2 0-.2-.1-.2-.1l-12.9-12.9v12.2c0 .2-.1.3-.2.4s-.3.2-.4.2h-3.8c-.2 0-.3-.1-.4-.2s-.2-.3-.2-.4z"/><path d="m197.8 281.2c0-1.6.3-3.2.9-4.6s1.4-2.7 2.5-3.7c1.1-1.1 2.3-1.9 3.7-2.5s3-.9 4.6-.9 3.2.3 4.6.9 2.7 1.5 3.7 2.5c1.1 1.1 1.9 2.3 2.5 3.7s.9 3 .9 4.6-.3 3.2-.9 4.6-1.4 2.7-2.5 3.7c-1.1 1.1-2.3 1.9-3.7 2.5s-3 .9-4.6.9-3.2-.3-4.6-.9-2.7-1.4-3.7-2.5c-1.1-1.1-1.9-2.3-2.5-3.7s-.9-2.9-.9-4.6zm5.2 0c0 .9.2 1.7.5 2.5s.8 1.5 1.4 2.1 1.3 1.1 2.1 1.4 1.6.5 2.5.5 1.7-.2 2.5-.5 1.5-.8 2.1-1.4 1.1-1.3 1.4-2.1.5-1.6.5-2.5-.2-1.7-.5-2.5-.8-1.5-1.4-2.1-1.3-1.1-2.1-1.4-1.6-.5-2.5-.5-1.7.2-2.5.5-1.5.8-2.1 1.4-1.1 1.3-1.4 2.1-.5 1.6-.5 2.5z"/><path d="m232.8 274.6h-4.7c-.2 0-.3-.1-.4-.2s-.2-.3-.2-.4v-3.6c0-.2.1-.3.2-.4s.3-.2.4-.2h14.5c.2 0 .3.1.4.2s.2.3.2.4v3.6c0 .2-.1.3-.2.4s-.3.2-.4.2h-4.6v17.4c0 .2-.1.3-.2.4s-.3.2-.4.2h-3.9c-.2 0-.3-.1-.4-.2s-.2-.3-.2-.4v-17.4z"/><path d="m251.4 270.4c0-.2.1-.3.2-.4s.3-.2.4-.2h3.9c.2 0 .3.1.4.2s.2.3.2.4v21.6c0 .2-.1.3-.2.4s-.3.2-.4.2h-3.9c-.2 0-.3-.1-.4-.2s-.2-.3-.2-.4z"/><path d="m267.1 270.4c0-.2.1-.3.2-.4s.3-.2.4-.2h7.9c1 0 1.9.2 2.8.6s1.7.9 2.3 1.5c.7.7 1.2 1.4 1.6 2.3s.6 1.8.6 2.8-.2 2-.6 2.9-.9 1.7-1.6 2.3c-.7.7-1.4 1.2-2.3 1.6s-1.8.6-2.8.6h-3.4v7.7c0 .2-.1.3-.2.4s-.3.2-.4.2h-3.8c-.2 0-.3-.1-.4-.2s-.2-.3-.2-.4v-21.7zm8.2 9.2c.7 0 1.3-.2 1.8-.7s.8-1.1.8-1.8-.3-1.3-.8-1.7c-.5-.5-1.1-.7-1.8-.7h-3.1v5h3.1z"/><path d="m291.1 270.4c0-.2.1-.3.2-.4s.3-.2.4-.2h3.9c.2 0 .3.1.4.2s.2.3.2.4v21.6c0 .2-.1.3-.2.4s-.3.2-.4.2h-3.9c-.2 0-.3-.1-.4-.2s-.2-.3-.2-.4z"/><path d="m304.3 292.6c-.2 0-.4-.1-.5-.3s-.1-.4 0-.6l10.2-21.9c.1-.2.3-.4.6-.4h.3c.2 0 .4.1.6.4l10.2 21.9c.1.2.1.4 0 .6s-.3.3-.5.3h-3.6c-.3 0-.5-.1-.7-.2s-.3-.3-.5-.6l-1.2-2.6h-8.9l-1.2 2.6c-.1.2-.2.4-.4.5s-.4.2-.8.2h-3.6zm12.9-7.8-2.5-5.4-2.4 5.4z"/><circle cx="82.3" cy="281.3" r="3.1"/><circle cx="337.7" cy="281.3" r="3.1"/><path clip-rule="evenodd" d="m269.9 148.7 2-1.4s.8-.5-.3-1.5c0 0-9.7-8.5-11.1-12.1 0 0-.8-.3-.3-1.1 0 0 1.5-13.9 0-22.6 0 0-.7-8.4-.8-11.2 0 0-3 2-3.9 11.6 0 0-1.3 9.4-.7 15 0 0-.3.1-.4-.2l-2.7-4.3s-.5-.6-.4-2.6c0 0 .5-33.2 1.6-34.5 0 0 .3-6.6-.6-7.7 0 0-4.4 1.9-5.6 11 0 0-2.8 18.7-2.2 20.7 0 0-5.7-10.4-5.5-11.4.2-.9 3.6-28 3.2-26.5 0 0 0-2.4-.1-2.9 0 0-.3-2-1.8.3 0 0-2.1 4.8-3.3 8.3 0 0-2.4 8.8-2.1 9.7 0 0-4.5-13.4-4.3-15.6 0 0-2.2-9.6-2.2-10.6 0 0-2.2 1.8-2.2 4.6l.6 3.9-5.3-3.5s1.6 5.2 4.2 8.7l2.1 2.9s3.1 5.2 3.2 9.8c0 0-5-8.1-10.6-7.1l5.5 7.4 7.7 9.8s3.2 3.8 3.5 5.9l6.1 12.5s3.3 6.7 4.9 8.7l6 9.4s-14.4-7.2-16.1-7.4c0 0-3.4-1.6-3.9-1.7 0 0-2.8-5-4.2-5.9 0 0-7.2-8.4-8.3-8.3 0 0-5.7-6-5.8-6.9 0 0-1.2 5.1 3.9 10.1 0 0 .4 0 5 5.2 0 0 1.7 2.5 2.3 3.7l-10.1-2.1-.4-.2-.3-.1-.4-.5s-9.5-11.5-11.9-12.7c0 0-7.7-5.5-10.5-6.2 0 0-.3 5.4 5.6 11.1 0 0 5.9 5.9 9.2 7l.1.3s-8.1-.5-8.2-.9l-.4-.1s-7.4-9.6-10.7-11.6c0 0-7-4.3-10.7-5.4 0 0-1-.3-1.9-1.3-.2.1-.6 3.5 1.9 7.4 0 0 4.4 4.7 7.6 6.5 3.2 1.7.2.2.2.2s4.1 3.3 4.5 4.1.3.1.3.1-9.1-.1-8.9.1c0 0-1.2.1-2.3-1.5 0 0-6.1-5.9-8.1-6.9 0 0-6.7-2.7-9.4-2.9 0 0-2-.8-2.3-1.2 0 0-.7 2.1 2.1 5.4 0 0 2.8 2.4 5.1 3.8 0 0 3 2.1 3.7 3.4l.2.4-.2.2s-1.9-.3-3.4.1l-8.9 1.2s-11.5 1.4-10.5 4.3l7.5-1.4s13.3-2.6 21.7-2.1c0 0-10.7 3.7-16.7 11.6 0 0-.7.9.5 1.1 0 0 9.3-2.3 16.5-6.4 0 0 5.3-4.4 5.6-5.8 0 0 .4-1 1.8-.7 0 0 10.9 0 14 .8 0 0-8.3 2.6-13 10.6 0 0 6.5-1.9 10.1-2.3 0 0 12.3-2.6 15.4-5.9 0 0 1-1 2.3-.5 0 0 1.1-.6 17.6 4.5l-.2.4-.9.3s-7.9 2-9.8 1.9c0 0-6.9-1.8-11.5 6.2l5.9-.2s8.2-.4 11-1c0 0 7.9-.5 14.1-3.4 0 0 1.1-.8 4.3 1.3 0 0 .8.6.7.5s-10.2 1.2-13.7 3c0 0-3.9 1-5.6 2.5 0 0-3.4 1.4-2.9 5l.9 1.7s.4.6.9.3l1.9-1.4 2.1-1.3s4.7-2.8 10.9-2.3c0 0 10.1 1.7 15.5-.5 0 0 1.6-1.2 3.2 1 0 0 6.6 4.9 8.1 7.1l1.4 1.1c0-.2 1.1 1.1 2.3.1z" fill-rule="evenodd"/></g></svg>